

<svg width="562" height="486.80525" xmlns="http://www.w3.org/2000/svg" xmlns:xlink="http://www.w3.org/1999/xlink" data-name="Layer 1" stroke="null" name='xd'> 
 <g stroke="null">
  <title stroke="null">Layer 1</title>
  <path d="m234.88171,387.41635a15.51335,15.51335 0 0 0 15.61066,15.38848l265.99316,-1.90637a15.5,15.5 0 0 0 -0.22216,-30.9992l-265.99317,1.90637a15.5134,15.5134 0 0 0 -15.38849,15.61072z" fill="#f2f2f2" id="svg_1" stroke="null"/>
  <path d="m266.78864,383.70956a0.9845,0.9845 0 0 1 0.98,-0.98706l68.70306,-0.24567a0.98365,0.98365 0 1 1 0.007,1.96729l0,0l-68.70307,0.24566a0.98477,0.98477 0 0 1 -0.98699,-0.98022z" fill="#ccc" id="svg_2" stroke="null"/>
  <path d="m266.868,392.72677a0.98451,0.98451 0 0 1 0.98,-0.98706l176.88977,-1.04944a0.98366,0.98366 0 0 1 0.01123,1.96729l-0.00421,0l-176.88979,1.04944a0.98474,0.98474 0 0 1 -0.987,-0.98023z" fill="#ccc" id="svg_3" stroke="null"/>
  <path d="m234.88171,328.41635a15.51335,15.51335 0 0 0 15.61066,15.38848l265.99316,-1.90637a15.5,15.5 0 0 0 -0.22216,-30.9992l-265.99317,1.90637a15.5134,15.5134 0 0 0 -15.38849,15.61072z" fill="#f2f2f2" id="svg_4" stroke="null"/>
  <path d="m263.868,333.72677a0.98451,0.98451 0 0 1 0.98,-0.98706l176.88977,-1.04944a0.98365,0.98365 0 1 1 0.007,1.96729l0,0l-176.88977,1.04944a0.98474,0.98474 0 0 1 -0.987,-0.98023z" fill="#ccc" id="svg_5" stroke="null"/>
  <path d="m263.868,323.72677a0.98451,0.98451 0 0 1 0.98,-0.98706l176.88977,-1.04944a0.98365,0.98365 0 1 1 0.007,1.96729l0,0l-176.88977,1.04944a0.98474,0.98474 0 0 1 -0.987,-0.98023z" fill="#ccc" id="svg_6" stroke="null"/>
  <path d="m312.7298,455.80563l-265.99317,-1.90637a15.5,15.5 0 0 0 -0.22216,30.9992l265.99316,1.90637a15.5,15.5 0 0 0 0.22217,-30.9992z" fill="#f2f2f2" id="svg_7" stroke="null"/>
  <path d="m130.2243,468.68978l-68.70309,-0.24566a0.98365,0.98365 0 1 1 0.007,-1.96729l68.70309,0.24567a0.98365,0.98365 0 1 1 -0.007,1.96728z" fill="#ccc" id="svg_8" stroke="null"/>
  <path d="m239.1449,477.707l-176.88977,-1.04944a0.98365,0.98365 0 1 1 0.007,-1.96729l0,0l176.88974,1.04944a0.98365,0.98365 0 1 1 -0.007,1.96729l0.00003,0z" fill="#ccc" id="svg_9" stroke="null"/>
  <circle cx="555" cy="327.16309" r="7" fill="#f2f2f2" id="svg_10" stroke="null"/>
  <circle cx="555" cy="386.16309" r="7" fill="#f2f2f2" id="svg_11" stroke="null"/>
  <path d="m240.72754,430.48068l-192.44589,28.82855a12.07064,12.07064 0 1 1 -3.57648,-23.87488l192.44583,-28.82845a12.07064,12.07064 0 1 1 3.57648,23.87488l0.00006,-0.0001z" fill="#ff5252" id="svg_12" stroke="null"/>
  <path d="m106.82855,437.3659l-49.67862,7.62439a0.7196,0.7196 0 0 1 -0.21832,-1.42255l0,0l49.67862,-7.62439a0.7196,0.7196 0 0 1 0.21832,1.42255z" fill="#fff" id="svg_13" stroke="null"/>
  <path d="m186.56784,431.51339l-127.95484,19.32923a0.7196,0.7196 0 0 1 -0.21833,-1.42255l0,0l127.95485,-19.32917a0.7196,0.7196 0 1 1 0.21832,1.42254l0,-0.00005z" fill="#fff" id="svg_14" stroke="null"/>
  <path d="m196.0224,415.97079a5.16179,5.16179 0 0 1 -4.74048,-6.27124l-20.917,-14.98023l2.721,-6.80438l24.71338,17.97388a5.1546,5.1546 0 0 1 -1.77692,10.082l0.00002,-0.00003z" fill="#4c4c4c" id="svg_15" stroke="null"/>
  <path d="m139.8288,332.21408l-12.569,4.5996a4.47859,4.47859 0 0 0 -2.66672,5.74494q0.074,0.20234 0.16727,0.39685l17.137,35.74939l41.29065,29.75952l6.32873,-10.0838l-31.27807,-28.48163l-18.40986,-37.68487z" fill="#3f3d56" id="svg_16" stroke="null"/>
  <path d="m134.66049,406.14608c-14.32382,-1.33142 -28.355,-4.638 -42.70077,-5.75l5.75732,-14.653l29.4231,4.38208l7.52035,16.02092z" fill="#a0616a" id="svg_17" stroke="null"/>
  <path d="m86.06342,409.5917l-0.12436,1.09735l-1.0242,8.81519l-1.19977,0.07312l-0.0658,11.03918a5.13859,5.13859 0 0 1 -2.09955,6.01337a4.21657,4.21657 0 0 1 -0.50476,0.278a52.55557,52.55557 0 0 1 0.6511,-17.19879a30.66231,30.66231 0 0 1 2.04834,-6.11584a25.03154,25.03154 0 0 1 1.53625,-2.81647c0.24139,-0.40233 0.50476,-0.79742 0.78275,-1.18511z" fill="#2f2e41" id="svg_18" stroke="null"/>
  <path d="m86.29019,407.68966l-0.22677,1.89472l0,0.00732l-0.12436,1.09735c-0.32187,0.04389 -0.54865,0.07312 -0.65842,0.08777a0.63456,0.63456 0 0 1 -0.08048,0.00732l1.09003,-3.09448z" fill="#6c63ff" id="svg_19" stroke="null"/>
  <path d="m138.3768,371.36074l-2.47266,14.38233s6.00608,13.53375 1.87278,16.90625a4.22757,4.22757 0 0 0 -1.37534,3.65045c-0.58523,-0.05121 -1.16315,-0.10242 -1.74109,-0.15363c-14.32382,-1.33142 -28.355,-4.638 -42.70077,-5.75c-1.01688,-0.08044 -2.02643,-0.15362 -3.04325,-0.20483l4.41858,-12.56806l-2.98474,-11.17077l-3.09445,-11.58783l-0.66568,-19.07892a10.6774,10.6774 0 0 1 0.00726,-1.0827c0,-0.19019 0.00733,-0.37311 0.022,-0.5633a16.16627,16.16627 0 0 1 6.84732,-12.15838a0.02577,0.02577 0 0 0 0.01464,-0.00733a16.20023,16.20023 0 0 1 2.12146,-1.25824a15.715,15.715 0 0 1 2.46534,-0.973l0.84863,-0.256l4.59412,-7.43262l5.32574,-0.556l1.97519,-0.20483l12.868,-1.33875l2.77261,3.59925l0.50477,0.65838l1.95321,2.53119l6.08652,3.24079a14.91892,14.91892 0 0 1 3.60654,2.67749a15.14139,15.14139 0 0 1 4.36737,9.2688a14.91894,14.91894 0 0 1 0.04388,2.42877l-4.63798,27.00149z" fill="#3f3d56" id="svg_20" stroke="null"/>
  <path d="m75.73956,306.58846c-0.13214,5.68567 1.99268,11.191 5.0452,16.02656a30.40274,30.40274 0 0 1 4.23785,-7.84137a24.40954,24.40954 0 0 0 2.59775,15.45855a3.27754,3.27754 0 0 0 0.27808,0.17835a9.58077,9.58077 0 0 0 8.33413,1.02191a18.69122,18.69122 0 0 1 -1.60647,-22.65094c1.32,-1.908 3.02725,-3.59537 3.84485,-5.76666c1.29092,-3.46442 0.05,-7.27881 -0.73282,-10.89081c-0.732,-3.3617 -0.86011,-7.36212 1.3952,-9.82581a2.37012,2.37012 0 0 0 -2.17218,-1.00012a4.48308,4.48308 0 0 0 -3.04736,2.6499a19.33328,19.33328 0 0 1 -1.9682,3.69965c-1.66373,2.01248 -4.497,2.48828 -6.88468,3.54889c-5.78241,2.57559 -9.18274,9.06534 -9.32135,15.3919z" fill="#2f2e41" id="svg_21" stroke="null"/>
  <path d="m124.41318,303.33764c-0.33045,-1.15652 1.94711,5.91306 0.84808,6.04068c-5.00558,0.57422 -11.877,3.56372 -15.36331,4.95837c-0.157,-0.01824 -0.314,-0.03649 -0.4664,-0.05926c-0.374,-0.041 -0.73886,-0.10028 -1.099,-0.16864c-8.11792,-1.53595 -11.23965,-14.006 -11.23965,-14.12c0,-0.56057 1.34545,-15.9577 3.465,-16.18557a15.62024,15.62024 0 0 1 1.67621,-0.09116l5.25955,0a24.4417,24.4417 0 0 1 3.30164,-0.47855l0.00924,0c10.58838,-0.80673 18.93717,5.647 18.15677,13.49994c-0.0046,0.0091 -0.01385,0.01822 -0.01846,0.02735c-0.22629,0.33725 -0.42483,0.65631 -0.60034,0.96167c-0.17084,0.28714 -0.314,0.56057 -0.43866,0.82037c-0.96512,2.0054 1.51565,4.52881 -0.1293,4.99982c-2.18781,0.62643 5.75405,21.21615 -2.90558,21.21615c4.21224,1.1977 0.45577,-18.23077 -0.45579,-21.42117z" fill="#2f2e41" id="svg_22" stroke="null"/>
  <circle cx="114.96106" cy="302.96619" r="12.45264" fill="#666666" id="svg_23" stroke="null"/>
  <path d="m128.9613,297.41262c-0.20779,0.10938 -0.411,0.20963 -0.6188,0.30994c-0.217,0.1048 -0.434,0.20965 -0.65109,0.30536c-4.1698,1.89148 -7.56379,2.1011 -9.62329,-0.61527a11.5123,11.5123 0 0 0 -0.94663,-4.14752a6.66635,6.66635 0 0 1 -1.099,4.14752l-4.14667,0c-4.27136,2.8349 -6.46478,3.13117 -3.50021,12.438c0.82657,2.59332 4.11316,17.6839 2.82022,19.92175c-0.374,-0.041 -4.3533,-16.56988 -4.71347,-16.63824c-8.11792,-1.53595 -13.27588,-14.91025 -12.61554,-15.66681a13.94366,13.94366 0 0 1 1.44534,-6.203a14.26749,14.26749 0 0 1 5.42118,-5.89768a25.142,25.142 0 0 1 4.33139,-1.6271c0.03695,-0.00913 0.06927,-0.01825 0.1062,-0.02735c0.45715,-0.12307 0.92355,-0.237 1.38992,-0.33273a25.56923,25.56923 0 0 1 2.91837,-0.44208c0.06927,-0.00454 0.13852,-0.00912 0.20318,-0.00912a2.19919,2.19919 0 0 1 1.11286,0.30539c0.00461,0 0.00461,0.00455 0.00924,0.00455a2.09465,2.09465 0 0 1 0.61878,0.55148a2.1193,2.1193 0 0 1 0.45254,1.3172l4.61768,0q0.25626,0 0.51257,0.01364a12.38136,12.38136 0 0 1 11.93677,11.64035c0.01383,0.21874 0.01846,0.433 0.01846,0.65172z" fill="#2f2e41" id="svg_24" stroke="null"/>
  <path d="m81.54974,436.6299a4.21657,4.21657 0 0 1 -0.50476,0.278a5.15136,5.15136 0 1 1 -4.55368,-9.24176q0.13161,-0.06482 0.26679,-0.12213l-0.01465,-7.52765l-0.01465,-8.85913l-0.01459,-9.342l7.11066,-1.75574l-0.08048,13.53376l-0.02929,5.98407l-0.0658,11.03918a5.13859,5.13859 0 0 1 -2.09955,6.0134z" fill="#4c4c4c" id="svg_26" stroke="null"/>
  <path d="m109.656,340.54769l-0.7389,1.38263l-18.56683,34.522l-0.556,1.03149l-2.62625,22.627l-0.87787,7.57886l-0.22677,1.89471l0,0.00733l-0.12436,1.09735l-1.0242,8.81519l-1.19977,0.07312l-2.019,0.13171l-4.95263,0.30725l-3.709,0.23407l0.00733,-5.93292l0.06579,-44.96125l13.48984,-24.65338l0.32922,-0.60717l5.20865,-9.51752a4.48746,4.48746 0 0 1 6.09192,-1.77838q0.18526,0.10163 0.36038,0.22021l11.06845,7.5277z" fill="#3f3d56" id="svg_27" stroke="null"/>
  <circle cx="7" cy="466.16309" r="7" fill="#f2f2f2" id="svg_28" stroke="null"/>
  <path d="m486.9281,212.45123s-2.53845,26.86993 -3.943,46.76086l0,0.01465q-0.1647,2.40312 -0.30725,4.64536l-0.74616,0.06585c-0.51208,0.05121 -1.01684,0.10971 -1.529,0.16092c-8.17877,0.87055 -16.277,2.31174 -24.4046,3.56265q-1.17417,0.17565 -2.34833,0.35117a152.19083,152.19083 0 0 1 -24.52167,1.98981l-0.15362,0c0.06585,-1.02414 0.16821,-2.36292 0.28534,-3.8992c0.68768,-8.69812 2.07757,-23.77549 2.07757,-23.77549l1.29486,-8.72741l4.23566,-28.589l0.0293,-0.21952l0.03656,-0.24868l0.20483,-0.05121l8.89569,-2.31168l4.78436,-1.23633l2.77991,-3.83337l3.70166,-5.10623l15.39191,1.89474l1.12659,4.1991l2.085,7.73984l0.06579,0.24872l8.07636,4.68927l2.88224,1.67518z" fill="#e6e6e6" id="svg_29" stroke="null"/>
  <circle cx="464.95712" cy="174.03893" r="16.31188" fill="#666666" id="svg_30" stroke="null"/>
  <path d="m447.86505,164.16699c1.43219,1.15744 1.10443,6.78647 2.70038,5.869s1.928,-2.56054 3.76575,-2.57778a6.01723,6.01723 0 0 1 3.96258,1.79318c0.19562,0.17679 0.38166,0.36215 0.56238,0.54538c0.16528,-0.058 0.32849,-0.11051 0.50024,-0.15354a5.18287,5.18287 0 0 1 3.80127,0.53525a5.0854,5.0854 0 0 0 -2.89532,1.16745c0.35077,0.39313 0.70685,0.78845 1.081,1.15381c3.124,3.06146 9.52948,-0.19879 13.83643,-0.93445c-3.58722,3.91675 -2.88,6.10324 -1.98779,11.33841l0.00372,0.286c0.18347,-1.2073 4.05011,-1.14712 3.41266,0.45484a20.59327,20.59327 0 0 1 -2.98023,4.381c5.26856,-3.64987 9.52179,-8.68094 10.46161,-14.75824a8.93419,8.93419 0 0 0 0.20538,-3.82739a2.93513,2.93513 0 0 0 -2.80334,-2.235a10.815,10.815 0 0 0 -13.3009,-13.64243a41.33293,41.33293 0 0 0 -5.00336,2.15955a8.99354,8.99354 0 0 1 -5.29919,0.89755c-1.13166,-0.23376 -2.27784,-0.81973 -3.38715,-0.48794c-1.28528,0.38547 -1.83777,1.74289 -2.353,3.05331a5.177,5.177 0 0 1 2.412,1.81943a5.06559,5.06559 0 0 0 -3.11646,-0.12662a0.31645,0.31645 0 0 0 -0.05542,0.015c-1.16368,2.08532 -1.231,2.59668 -3.52324,3.27423z" fill="#2f2e41" id="svg_31" stroke="null"/>
  <path d="m455.99805,267.66152q-1.17408,0.17565 -2.34833,0.35117a152.19092,152.19092 0 0 1 -24.52167,1.98981c0.05847,-1.29486 0.09509,-2.597 0.13165,-3.8992c0.05121,-1.82157 0.08777,-3.65046 0.12433,-5.47934q0.25233,-12.43269 0.50476,-24.85816c0.00733,-0.395 0.01465,-0.79742 0.02192,-1.19244c0.16827,-8.37628 0.39508,-17.03052 3.86993,-24.66068a25.15318,25.15318 0 0 1 2.94812,-4.8941c0.05853,-0.08048 0.10974,-0.1536 0.16827,-0.22678c0.08045,-0.10238 0.161,-0.2048 0.2414,-0.29989a24.29793,24.29793 0 0 1 3.1018,-3.21152a17.87074,17.87074 0 0 1 13.007,-4.70389l0.35114,0.534l0.4682,0.72427c-0.30725,2.28974 -0.62183,4.58682 -0.91443,6.88391c-1.26556,9.95642 -2.17267,19.97141 -1.15588,29.93515c0.86328,8.37632 3.07983,16.577 3.78216,24.96061c0.02924,0.278 0.05121,0.56332 0.07312,0.8413a69.71563,69.71563 0 0 1 0.14651,7.20578z" fill="#3f3d56" id="svg_32" stroke="null"/>
  <path d="m481.93,263.93307c0.36,-1.56 0.7,-3.13 1.06,-4.71l0,-0.01q2.08512,-9.36 4.18,-18.72c1.83,-8.18 3.66,-16.64 2.09,-24.87a24.77831,24.77831 0 0 0 -0.61,-2.51c-0.08,-0.27 -0.17,-0.54 -0.26,-0.81a24.93325,24.93325 0 0 0 -2.55,-5.4c-2.78,-4.44 -6.94,-7.89 -12.02,-8.8a1.6657,1.6657 0 0 0 -0.29,-0.06l-1.11,1.03c-0.23,2.13 -0.45,4.28 -0.69,6.42c-1.14,10.13 -2.63,20.25 -6.04,29.83c-2.92,8.2 -7.2,15.87 -9.87,24.15c-0.01,0.05 -0.03,0.1 -0.04,0.14a70.77963,70.77963 0 0 0 -2.13,8.4c0.78,-0.12 1.57,-0.23 2.35,-0.35c8.13,-1.25 16.22,-2.69 24.4,-3.56l1.53,-0.17z" fill="#3f3d56" id="svg_33" stroke="null"/>
  <path d="m497.81964,170.60674l-0.46814,-4.49176l-0.10974,-1.03884l-0.16827,-1.66791l-3.6139,-34.66834a4.7198,4.7198 0 0 0 -2.07031,-5.38421a4.52655,4.52655 0 0 0 -6.20355,1.56552c-0.022,0.03656 -0.03662,0.07315 -0.05853,0.10971a4.74625,4.74625 0 0 0 1.63867,6.40842a4.8073,4.8073 0 0 0 0.68036,0.32189l-0.02924,0.973l-0.08777,3.05056l-0.06585,2.30442l-0.139,4.58682l-0.05121,1.77771l-0.16827,5.76459l-0.16095,5.55984l-0.19751,6.73758l-0.15363,5.17941l1.86548,0.47553l9.56136,2.43606z" fill="#4c4c4c" id="svg_34" stroke="null"/>
  <path d="m501.43353,177.98809a8.15334,8.15334 0 0 0 -0.43158,-1.763c-0.94372,-1.6387 -1.52166,0.651 -1.00219,-3.73828c0.417,-3.56265 -2.085,-3.11639 -1.18512,-3.87723c1.485,-1.25824 -0.5633,-1.81424 -1.46308,-2.49456c-0.4024,-0.3 -0.57062,-0.62186 -0.10974,-1.03885a3.104,3.104 0 0 1 0.71692,-0.46817c0.98029,-0.51209 0.417,-0.89985 -0.88513,-1.19974a61.79056,61.79056 0 0 0 -8.85913,-0.82666c-0.71692,-0.03656 -1.30213,-0.05121 -1.66791,-0.06586c-0.27069,-0.00729 -0.42432,-0.00729 -0.42432,-0.00729a2.93279,2.93279 0 0 0 -0.89978,1.83615a10.18908,10.18908 0 0 0 0.33649,4.44052a15.70113,15.70113 0 0 0 1.19244,2.88232a2.07159,2.07159 0 0 1 0.2486,1.12665l0,0.00733a1.61363,1.61363 0 0 1 -0.84131,1.08267c-0.98761,0.65838 -0.4389,2.041 0.32923,3.3432a14.78822,14.78822 0 0 1 1.65332,2.80914c0,0.89984 -6.08655,20.02262 -6.08655,20.02262l2.23852,28.87442a8.03127,8.03127 0 0 0 5.83777,1.6167a8.6254,8.6254 0 0 0 4.6015,-2.341a20.36686,20.36686 0 0 0 4.25031,-6.02072c5.91101,-11.87303 3.70904,-37.19206 2.45074,-44.20036z" fill="#3f3d56" id="svg_35" stroke="null"/>
  <path d="m390.439,130.36971a4.7406,4.7406 0 0 1 2.2387,6.22156a4.55092,4.55092 0 0 1 -0.3767,0.65064l21.04864,29.13913l-7.82538,8.82653l-19.89816,-37.08636a4.72736,4.72736 0 0 1 -1.31226,-5.62033a4.52413,4.52413 0 0 1 6.01331,-2.1853q0.05631,0.02627 0.11185,0.05413z" fill="#4c4c4c" id="svg_36" stroke="null"/>
  <path d="m449.44232,215.80868s-2.81372,10.06424 -15.94574,2.66992s-27.3349,-35.00665 -27.4765,-36.89862s1.62238,-0.31955 -1.26819,-3.65738c-2.35089,-2.71466 -0.02917,-3.751 -1.19946,-3.87662c-3.086,-0.33108 2.27191,-4.243 -1.53858,-3.79415s8.61451,-8.38276 8.61451,-8.38276s2.26446,0.05436 3.99267,4.88105c0.97064,2.711 0.05371,4.56585 2.36707,4.55532s1.323,5.482 1.81219,6.20777s16.27692,13.14618 16.27692,13.14618l14.36511,25.14929z" fill="#3f3d56" id="svg_37" stroke="null"/>
  <circle cx="431.97128" cy="76.08154" r="76.08154" fill="#ff5656" id="svg_38" stroke="null"/>
  <path d="m393.31219,59.15066a20.918,20.918 0 0 1 1.79975,4.75766c1.03186,4.34677 0.30749,8.29159 -2.06531,10.14181a4.59816,4.59816 0 0 1 -0.76465,0.50147c-2.96863,1.55246 -7.06427,-0.08606 -10.347,-3.75226a20.9179,20.9179 0 0 1 -2.88086,-4.19229a20.44948,20.44948 0 0 1 -1.7854,-4.70877c-1.15644,-4.80075 -0.17066,-9.13055 2.80676,-10.68762c3.94338,-2.0622 9.86764,1.49774 13.23671,7.94z" fill="#fff" id="svg_39" stroke="null"/>
  <path d="m392.05188,66.58068a10.94482,10.94482 0 0 1 0.99475,7.46945a4.59816,4.59816 0 0 1 -0.76465,0.50147c-2.96863,1.55246 -7.06427,-0.08606 -10.347,-3.75226a20.9179,20.9179 0 0 1 -2.88086,-4.19229a20.44948,20.44948 0 0 1 -1.7854,-4.70877a10.9918,10.9918 0 0 1 14.78316,4.6824z" fill="#3f3d56" id="svg_40" stroke="null"/>
  <path d="m422.84723,43.7049c3.23468,6.18524 2.93878,12.78366 -0.57446,15.12881a4.59191,4.59191 0 0 1 -0.45575,0.27216c-3.93445,2.05759 -9.85877,-1.50235 -13.22779,-7.94455a20.36766,20.36766 0 0 1 -1.78076,-4.69989c-1.16113,-4.80958 -0.17535,-9.1394 2.80213,-10.6965c3.94323,-2.06218 9.86755,1.49774 13.23663,7.93997z" fill="#fff" id="svg_41" stroke="null"/>
  <path d="m421.29449,51.2879a10.94756,10.94756 0 0 1 0.97828,7.54583a4.59191,4.59191 0 0 1 -0.45575,0.27216c-3.93445,2.05759 -9.85877,-1.50235 -13.22779,-7.94455a20.36766,20.36766 0 0 1 -1.78076,-4.69989a10.9913,10.9913 0 0 1 14.48602,4.82645z" fill="#3f3d56" id="svg_42" stroke="null"/>
  <path d="m389.58124,102.85595c8.95788,17.12906 26.33648,25.72418 38.81622,19.19772s15.33478,-25.703 6.37689,-42.832c-9.84035,14.34723 -24.74335,22.42523 -45.19311,23.63428z" fill="#fff" id="svg_43" stroke="null"/>
  <path fill="#919191" d="m499.48193,40.93701a76.10875,76.10875 0 0 0 -77.53668,-40.1648a76.08839,76.08839 0 0 1 0.23541,150.84473a76.0624,76.0624 0 0 0 77.30127,-110.67993z" opacity="0.2" id="svg_44" stroke="null"/>
  <text fill="#ff5252" stroke="null" stroke-width="0" x="127.46613" y="138.38858" id="svg_46" font-size="24" font-family="Noto Sans JP" text-anchor="start" xml:space="preserve">Ricardo Briceño,</text>
  <text fill="#ffffffbf" stroke="null" stroke-width="0" x="26.85668" y="176.7601" id="svg_47" font-size="24" font-family="Noto Sans JP" text-anchor="start" xml:space="preserve">I wanna welcome you to Chatlan !</text>
  <text fill="#ffffffbf" stroke="null" stroke-width="0" x="26.18049" y="216.78876" id="svg_49" font-size="24" font-family="Noto Sans JP" text-anchor="start" xml:space="preserve">Select a chat or</text>
  <rect id="svg_45" height="1" width="2" y="69.59738" x="264" stroke-width="0" stroke="null" fill="#ffffffbf"/>
  <text id='svg-cn-chat' fill="#ff5252" stroke="null" stroke-width="0" x="179.30459" y="216.31257" font-size="24" font-family="Noto Sans JP" text-anchor="start" xml:space="preserve">create a new one.</text>
  <rect id="svg_45" height="1" width="2" y="69.59738" x="264" stroke-width="0" stroke="null" fill="#ffffffbf"/>
  <text xml:space="preserve" text-anchor="start" font-family="Noto Sans JP" font-size="24" id="svg_48" y="138.02565" x="27.095" stroke-width="0" stroke="null" fill="#ffffffbf">Hello, I'm</text>
 </g>
</svg>
